<mxfile host="app.diagrams.net" agent="Mozilla/5.0 (Windows NT 10.0; Win64; x64) AppleWebKit/537.36 (KHTML, like Gecko) Chrome/138.0.0.0 Safari/537.36" version="28.0.7">
  <diagram name="Page-1" id="Ct9idWwbH_BXz3LimVxh">
    <mxGraphModel grid="1" page="1" gridSize="10" guides="1" tooltips="1" connect="0" arrows="1" fold="1" pageScale="1" pageWidth="850" pageHeight="1100" math="0" shadow="0">
      <root>
        <mxCell id="0" />
        <mxCell id="1" parent="0" />
        <mxCell id="FSTvZLZT1JtWRTk_z4Pj-20" value="" style="rounded=0;whiteSpace=wrap;html=1;" vertex="1" parent="1">
          <mxGeometry x="110" y="220" width="630" height="670" as="geometry" />
        </mxCell>
        <mxCell id="L0QpSJm78Vm_rA86w4UC-133" style="edgeStyle=orthogonalEdgeStyle;rounded=0;orthogonalLoop=1;jettySize=auto;html=1;" edge="1" parent="1" source="L0QpSJm78Vm_rA86w4UC-2" target="L0QpSJm78Vm_rA86w4UC-62">
          <mxGeometry relative="1" as="geometry" />
        </mxCell>
        <mxCell id="L0QpSJm78Vm_rA86w4UC-2" value="&lt;span style=&quot;font-weight: 400; text-wrap-mode: wrap;&quot;&gt;Client&lt;/span&gt;" style="shape=table;startSize=30;container=1;collapsible=1;childLayout=tableLayout;fixedRows=1;rowLines=0;fontStyle=1;align=center;resizeLast=1;html=1;" vertex="1" parent="1">
          <mxGeometry x="150" y="260" width="80" height="60" as="geometry" />
        </mxCell>
        <mxCell id="L0QpSJm78Vm_rA86w4UC-6" value="" style="shape=tableRow;horizontal=0;startSize=0;swimlaneHead=0;swimlaneBody=0;fillColor=none;collapsible=0;dropTarget=0;points=[[0,0.5],[1,0.5]];portConstraint=eastwest;top=0;left=0;right=0;bottom=0;" vertex="1" parent="L0QpSJm78Vm_rA86w4UC-2">
          <mxGeometry y="30" width="80" height="30" as="geometry" />
        </mxCell>
        <mxCell id="L0QpSJm78Vm_rA86w4UC-7" value="" style="shape=partialRectangle;connectable=0;fillColor=none;top=0;left=0;bottom=0;right=0;editable=1;overflow=hidden;whiteSpace=wrap;html=1;" vertex="1" parent="L0QpSJm78Vm_rA86w4UC-6">
          <mxGeometry width="30" height="30" as="geometry">
            <mxRectangle width="30" height="30" as="alternateBounds" />
          </mxGeometry>
        </mxCell>
        <mxCell id="L0QpSJm78Vm_rA86w4UC-8" value="&lt;span&gt;&lt;span style=&quot;font-family: Consolas, &amp;quot;Courier New&amp;quot;, monospace; font-size: 14px; white-space: pre; color: rgb(156, 220, 254);&quot;&gt;&lt;font style=&quot;color: rgb(12, 67, 96);&quot;&gt;Name&lt;/font&gt;&lt;/span&gt;&lt;/span&gt;" style="shape=partialRectangle;connectable=0;fillColor=none;top=0;left=0;bottom=0;right=0;align=left;spacingLeft=6;overflow=hidden;whiteSpace=wrap;html=1;" vertex="1" parent="L0QpSJm78Vm_rA86w4UC-6">
          <mxGeometry x="30" width="50" height="30" as="geometry">
            <mxRectangle width="50" height="30" as="alternateBounds" />
          </mxGeometry>
        </mxCell>
        <mxCell id="nJIS8TTzF9_8jRbYI_bg-1" style="edgeStyle=orthogonalEdgeStyle;rounded=0;orthogonalLoop=1;jettySize=auto;html=1;" edge="1" parent="1" source="L0QpSJm78Vm_rA86w4UC-16" target="L0QpSJm78Vm_rA86w4UC-100">
          <mxGeometry relative="1" as="geometry" />
        </mxCell>
        <mxCell id="L0QpSJm78Vm_rA86w4UC-16" value="&lt;span style=&quot;font-weight: 400; text-wrap-mode: wrap;&quot;&gt;Product&lt;/span&gt;" style="shape=table;startSize=30;container=1;collapsible=1;childLayout=tableLayout;fixedRows=1;rowLines=0;fontStyle=1;align=center;resizeLast=1;html=1;" vertex="1" parent="1">
          <mxGeometry x="511.25" y="410" width="180" height="180.00000000000057" as="geometry" />
        </mxCell>
        <mxCell id="L0QpSJm78Vm_rA86w4UC-175" value="" style="shape=tableRow;horizontal=0;startSize=0;swimlaneHead=0;swimlaneBody=0;fillColor=none;collapsible=0;dropTarget=0;points=[[0,0.5],[1,0.5]];portConstraint=eastwest;top=0;left=0;right=0;bottom=0;" vertex="1" parent="L0QpSJm78Vm_rA86w4UC-16">
          <mxGeometry y="30" width="180" height="30" as="geometry" />
        </mxCell>
        <mxCell id="L0QpSJm78Vm_rA86w4UC-176" value="" style="shape=partialRectangle;connectable=0;fillColor=none;top=0;left=0;bottom=0;right=0;editable=1;overflow=hidden;whiteSpace=wrap;html=1;" vertex="1" parent="L0QpSJm78Vm_rA86w4UC-175">
          <mxGeometry width="30" height="30" as="geometry">
            <mxRectangle width="30" height="30" as="alternateBounds" />
          </mxGeometry>
        </mxCell>
        <mxCell id="L0QpSJm78Vm_rA86w4UC-177" value="&lt;div style=&quot;font-family: Consolas, &amp;quot;Courier New&amp;quot;, monospace; font-size: 14px; white-space: pre; line-height: 19px; --darkreader-inline-color: light-dark(#a6a199, #67625b);&quot; data-darkreader-inline-color=&quot;&quot;&gt;&lt;font style=&quot;color: light-dark(rgb(43, 83, 105), rgb(149, 196, 221));&quot;&gt;Barcode&lt;/font&gt;&lt;/div&gt;" style="shape=partialRectangle;connectable=0;fillColor=none;top=0;left=0;bottom=0;right=0;align=left;spacingLeft=6;overflow=hidden;whiteSpace=wrap;html=1;" vertex="1" parent="L0QpSJm78Vm_rA86w4UC-175">
          <mxGeometry x="30" width="150" height="30" as="geometry">
            <mxRectangle width="150" height="30" as="alternateBounds" />
          </mxGeometry>
        </mxCell>
        <mxCell id="P-bTkRn5wozF6rPiBzLM-10" value="" style="shape=tableRow;horizontal=0;startSize=0;swimlaneHead=0;swimlaneBody=0;fillColor=none;collapsible=0;dropTarget=0;points=[[0,0.5],[1,0.5]];portConstraint=eastwest;top=0;left=0;right=0;bottom=0;" vertex="1" parent="L0QpSJm78Vm_rA86w4UC-16">
          <mxGeometry y="60" width="180" height="30" as="geometry" />
        </mxCell>
        <mxCell id="P-bTkRn5wozF6rPiBzLM-11" value="" style="shape=partialRectangle;connectable=0;fillColor=none;top=0;left=0;bottom=0;right=0;editable=1;overflow=hidden;whiteSpace=wrap;html=1;" vertex="1" parent="P-bTkRn5wozF6rPiBzLM-10">
          <mxGeometry width="30" height="30" as="geometry">
            <mxRectangle width="30" height="30" as="alternateBounds" />
          </mxGeometry>
        </mxCell>
        <mxCell id="P-bTkRn5wozF6rPiBzLM-12" value="&lt;div style=&quot;font-family: Consolas, &amp;quot;Courier New&amp;quot;, monospace; font-size: 14px; white-space: pre; line-height: 19px; --darkreader-inline-color: light-dark(#a6a199, #67625b);&quot; data-darkreader-inline-color=&quot;&quot;&gt;&lt;span style=&quot;--darkreader-inline-color: light-dark(#6cd7c1, #025e4b);&quot; data-darkreader-inline-color=&quot;&quot;&gt;&lt;font style=&quot;color: rgb(12, 67, 96);&quot;&gt;Price&lt;/font&gt;&lt;/span&gt;&lt;/div&gt;&lt;div&gt;&lt;span style=&quot;--darkreader-inline-color: light-dark(#a27764, #9f7a6a);&quot; data-darkreader-inline-color=&quot;&quot;&gt;&lt;font style=&quot;color: light-dark(rgb(145, 93, 71), rgb(206, 145, 120));&quot;&gt;&lt;br&gt;&lt;/font&gt;&lt;/span&gt;&lt;/div&gt;" style="shape=partialRectangle;connectable=0;fillColor=none;top=0;left=0;bottom=0;right=0;align=left;spacingLeft=6;overflow=hidden;whiteSpace=wrap;html=1;" vertex="1" parent="P-bTkRn5wozF6rPiBzLM-10">
          <mxGeometry x="30" width="150" height="30" as="geometry">
            <mxRectangle width="150" height="30" as="alternateBounds" />
          </mxGeometry>
        </mxCell>
        <mxCell id="nJIS8TTzF9_8jRbYI_bg-10" value="" style="shape=tableRow;horizontal=0;startSize=0;swimlaneHead=0;swimlaneBody=0;fillColor=none;collapsible=0;dropTarget=0;points=[[0,0.5],[1,0.5]];portConstraint=eastwest;top=0;left=0;right=0;bottom=0;" vertex="1" parent="L0QpSJm78Vm_rA86w4UC-16">
          <mxGeometry y="90" width="180" height="30" as="geometry" />
        </mxCell>
        <mxCell id="nJIS8TTzF9_8jRbYI_bg-11" value="" style="shape=partialRectangle;connectable=0;fillColor=none;top=0;left=0;bottom=0;right=0;editable=1;overflow=hidden;whiteSpace=wrap;html=1;" vertex="1" parent="nJIS8TTzF9_8jRbYI_bg-10">
          <mxGeometry width="30" height="30" as="geometry">
            <mxRectangle width="30" height="30" as="alternateBounds" />
          </mxGeometry>
        </mxCell>
        <mxCell id="nJIS8TTzF9_8jRbYI_bg-12" value="&lt;div style=&quot;font-family: Consolas, &amp;quot;Courier New&amp;quot;, monospace; font-size: 14px; white-space: pre; line-height: 19px; --darkreader-inline-color: light-dark(#a6a199, #67625b);&quot; data-darkreader-inline-color=&quot;&quot;&gt;&lt;font style=&quot;color: light-dark(rgb(43, 83, 105), rgb(149, 196, 221));&quot;&gt;ItemID&lt;/font&gt;&lt;/div&gt;" style="shape=partialRectangle;connectable=0;fillColor=none;top=0;left=0;bottom=0;right=0;align=left;spacingLeft=6;overflow=hidden;whiteSpace=wrap;html=1;" vertex="1" parent="nJIS8TTzF9_8jRbYI_bg-10">
          <mxGeometry x="30" width="150" height="30" as="geometry">
            <mxRectangle width="150" height="30" as="alternateBounds" />
          </mxGeometry>
        </mxCell>
        <mxCell id="nJIS8TTzF9_8jRbYI_bg-13" value="" style="shape=tableRow;horizontal=0;startSize=0;swimlaneHead=0;swimlaneBody=0;fillColor=none;collapsible=0;dropTarget=0;points=[[0,0.5],[1,0.5]];portConstraint=eastwest;top=0;left=0;right=0;bottom=0;" vertex="1" parent="L0QpSJm78Vm_rA86w4UC-16">
          <mxGeometry y="120" width="180" height="30" as="geometry" />
        </mxCell>
        <mxCell id="nJIS8TTzF9_8jRbYI_bg-14" value="" style="shape=partialRectangle;connectable=0;fillColor=none;top=0;left=0;bottom=0;right=0;editable=1;overflow=hidden;whiteSpace=wrap;html=1;" vertex="1" parent="nJIS8TTzF9_8jRbYI_bg-13">
          <mxGeometry width="30" height="30" as="geometry">
            <mxRectangle width="30" height="30" as="alternateBounds" />
          </mxGeometry>
        </mxCell>
        <mxCell id="nJIS8TTzF9_8jRbYI_bg-15" value="&lt;div style=&quot;font-family: Consolas, &amp;quot;Courier New&amp;quot;, monospace; font-size: 14px; white-space: pre; line-height: 19px; --darkreader-inline-color: light-dark(#a6a199, #67625b);&quot; data-darkreader-inline-color=&quot;&quot;&gt;&lt;font style=&quot;color: light-dark(rgb(43, 83, 105), rgb(149, 196, 221));&quot;&gt;ItemType&lt;/font&gt;&lt;/div&gt;" style="shape=partialRectangle;connectable=0;fillColor=none;top=0;left=0;bottom=0;right=0;align=left;spacingLeft=6;overflow=hidden;whiteSpace=wrap;html=1;" vertex="1" parent="nJIS8TTzF9_8jRbYI_bg-13">
          <mxGeometry x="30" width="150" height="30" as="geometry">
            <mxRectangle width="150" height="30" as="alternateBounds" />
          </mxGeometry>
        </mxCell>
        <mxCell id="FSTvZLZT1JtWRTk_z4Pj-22" value="" style="shape=tableRow;horizontal=0;startSize=0;swimlaneHead=0;swimlaneBody=0;fillColor=none;collapsible=0;dropTarget=0;points=[[0,0.5],[1,0.5]];portConstraint=eastwest;top=0;left=0;right=0;bottom=0;" vertex="1" parent="L0QpSJm78Vm_rA86w4UC-16">
          <mxGeometry y="150" width="180" height="30" as="geometry" />
        </mxCell>
        <mxCell id="FSTvZLZT1JtWRTk_z4Pj-23" value="" style="shape=partialRectangle;connectable=0;fillColor=none;top=0;left=0;bottom=0;right=0;editable=1;overflow=hidden;whiteSpace=wrap;html=1;" vertex="1" parent="FSTvZLZT1JtWRTk_z4Pj-22">
          <mxGeometry width="30" height="30" as="geometry">
            <mxRectangle width="30" height="30" as="alternateBounds" />
          </mxGeometry>
        </mxCell>
        <mxCell id="FSTvZLZT1JtWRTk_z4Pj-24" value="&lt;font style=&quot;color: light-dark(rgb(43, 83, 105), rgb(149, 196, 221)); font-size: 14px;&quot;&gt;[ ]OrderProduct&lt;/font&gt;" style="shape=partialRectangle;connectable=0;fillColor=none;top=0;left=0;bottom=0;right=0;align=left;spacingLeft=6;overflow=hidden;whiteSpace=wrap;html=1;" vertex="1" parent="FSTvZLZT1JtWRTk_z4Pj-22">
          <mxGeometry x="30" width="150" height="30" as="geometry">
            <mxRectangle width="150" height="30" as="alternateBounds" />
          </mxGeometry>
        </mxCell>
        <mxCell id="L0QpSJm78Vm_rA86w4UC-137" style="edgeStyle=orthogonalEdgeStyle;rounded=0;orthogonalLoop=1;jettySize=auto;html=1;entryX=0.5;entryY=0;entryDx=0;entryDy=0;" edge="1" parent="1" source="L0QpSJm78Vm_rA86w4UC-26" target="L0QpSJm78Vm_rA86w4UC-16">
          <mxGeometry relative="1" as="geometry" />
        </mxCell>
        <mxCell id="L0QpSJm78Vm_rA86w4UC-173" style="edgeStyle=orthogonalEdgeStyle;rounded=0;orthogonalLoop=1;jettySize=auto;html=1;entryX=1;entryY=0.5;entryDx=0;entryDy=0;" edge="1" parent="1" source="L0QpSJm78Vm_rA86w4UC-26" target="L0QpSJm78Vm_rA86w4UC-69">
          <mxGeometry relative="1" as="geometry" />
        </mxCell>
        <mxCell id="L0QpSJm78Vm_rA86w4UC-26" value="&lt;span style=&quot;font-weight: 400; text-wrap-mode: wrap;&quot;&gt;OrderProduct&lt;/span&gt;" style="shape=table;startSize=30;container=1;collapsible=1;childLayout=tableLayout;fixedRows=1;rowLines=0;fontStyle=1;align=center;resizeLast=1;html=1;" vertex="1" parent="1">
          <mxGeometry x="568.75" y="260" width="122.5" height="120" as="geometry" />
        </mxCell>
        <mxCell id="L0QpSJm78Vm_rA86w4UC-138" value="" style="shape=tableRow;horizontal=0;startSize=0;swimlaneHead=0;swimlaneBody=0;fillColor=none;collapsible=0;dropTarget=0;points=[[0,0.5],[1,0.5]];portConstraint=eastwest;top=0;left=0;right=0;bottom=1;" vertex="1" parent="L0QpSJm78Vm_rA86w4UC-26">
          <mxGeometry y="30" width="122.5" height="30" as="geometry" />
        </mxCell>
        <mxCell id="L0QpSJm78Vm_rA86w4UC-139" value="FK" style="shape=partialRectangle;connectable=0;fillColor=none;top=0;left=0;bottom=0;right=0;fontStyle=1;overflow=hidden;whiteSpace=wrap;html=1;" vertex="1" parent="L0QpSJm78Vm_rA86w4UC-138">
          <mxGeometry width="30" height="30" as="geometry">
            <mxRectangle width="30" height="30" as="alternateBounds" />
          </mxGeometry>
        </mxCell>
        <mxCell id="L0QpSJm78Vm_rA86w4UC-140" value="&lt;span style=&quot;font-weight: normal;&quot;&gt;&lt;span style=&quot;font-family: Consolas, &amp;quot;Courier New&amp;quot;, monospace; font-size: 14px; white-space: pre; --darkreader-inline-bgcolor: light-dark(#ffffff, #060707);&quot; data-darkreader-inline-bgcolor=&quot;&quot;&gt;&lt;font style=&quot;color: rgb(12, 67, 96); --darkreader-inline-color: light-dark(#78a5bd, #466d81);&quot; data-darkreader-inline-color=&quot;&quot;&gt;OrderID&lt;/font&gt;&lt;/span&gt;&lt;/span&gt;" style="shape=partialRectangle;connectable=0;fillColor=none;top=0;left=0;bottom=0;right=0;align=left;spacingLeft=6;fontStyle=5;overflow=hidden;whiteSpace=wrap;html=1;" vertex="1" parent="L0QpSJm78Vm_rA86w4UC-138">
          <mxGeometry x="30" width="92.5" height="30" as="geometry">
            <mxRectangle width="92.5" height="30" as="alternateBounds" />
          </mxGeometry>
        </mxCell>
        <mxCell id="L0QpSJm78Vm_rA86w4UC-142" value="" style="shape=tableRow;horizontal=0;startSize=0;swimlaneHead=0;swimlaneBody=0;fillColor=none;collapsible=0;dropTarget=0;points=[[0,0.5],[1,0.5]];portConstraint=eastwest;top=0;left=0;right=0;bottom=1;" vertex="1" parent="L0QpSJm78Vm_rA86w4UC-26">
          <mxGeometry y="60" width="122.5" height="30" as="geometry" />
        </mxCell>
        <mxCell id="L0QpSJm78Vm_rA86w4UC-143" value="FK" style="shape=partialRectangle;connectable=0;fillColor=none;top=0;left=0;bottom=0;right=0;fontStyle=1;overflow=hidden;whiteSpace=wrap;html=1;" vertex="1" parent="L0QpSJm78Vm_rA86w4UC-142">
          <mxGeometry width="30" height="30" as="geometry">
            <mxRectangle width="30" height="30" as="alternateBounds" />
          </mxGeometry>
        </mxCell>
        <mxCell id="L0QpSJm78Vm_rA86w4UC-144" value="&lt;span style=&quot;font-weight: normal;&quot;&gt;&lt;span style=&quot;font-family: Consolas, &amp;quot;Courier New&amp;quot;, monospace; font-size: 14px; white-space: pre; --darkreader-inline-bgcolor: light-dark(#ffffff, #060707);&quot; data-darkreader-inline-bgcolor=&quot;&quot;&gt;&lt;font style=&quot;color: rgb(12, 67, 96); --darkreader-inline-color: light-dark(#78a5bd, #466d81);&quot; data-darkreader-inline-color=&quot;&quot;&gt;ProductID&lt;/font&gt;&lt;/span&gt;&lt;/span&gt;" style="shape=partialRectangle;connectable=0;fillColor=none;top=0;left=0;bottom=0;right=0;align=left;spacingLeft=6;fontStyle=5;overflow=hidden;whiteSpace=wrap;html=1;" vertex="1" parent="L0QpSJm78Vm_rA86w4UC-142">
          <mxGeometry x="30" width="92.5" height="30" as="geometry">
            <mxRectangle width="92.5" height="30" as="alternateBounds" />
          </mxGeometry>
        </mxCell>
        <mxCell id="L0QpSJm78Vm_rA86w4UC-30" value="" style="shape=tableRow;horizontal=0;startSize=0;swimlaneHead=0;swimlaneBody=0;fillColor=none;collapsible=0;dropTarget=0;points=[[0,0.5],[1,0.5]];portConstraint=eastwest;top=0;left=0;right=0;bottom=0;" vertex="1" parent="L0QpSJm78Vm_rA86w4UC-26">
          <mxGeometry y="90" width="122.5" height="30" as="geometry" />
        </mxCell>
        <mxCell id="L0QpSJm78Vm_rA86w4UC-31" value="" style="shape=partialRectangle;connectable=0;fillColor=none;top=0;left=0;bottom=0;right=0;editable=1;overflow=hidden;whiteSpace=wrap;html=1;" vertex="1" parent="L0QpSJm78Vm_rA86w4UC-30">
          <mxGeometry width="30" height="30" as="geometry">
            <mxRectangle width="30" height="30" as="alternateBounds" />
          </mxGeometry>
        </mxCell>
        <mxCell id="L0QpSJm78Vm_rA86w4UC-32" value="&lt;div style=&quot;font-family: Consolas, &amp;quot;Courier New&amp;quot;, monospace; font-size: 14px; white-space: pre; line-height: 19px; --darkreader-inline-color: light-dark(#a6a199, #67625b);&quot; data-darkreader-inline-color=&quot;&quot;&gt;&lt;font style=&quot;color: rgb(12, 67, 96);&quot;&gt;Quantity&lt;/font&gt;&lt;/div&gt;&lt;div&gt;&lt;span style=&quot;--darkreader-inline-color: light-dark(#a27764, #9f7a6a);&quot; data-darkreader-inline-color=&quot;&quot;&gt;&lt;font style=&quot;color: light-dark(rgb(145, 93, 71), rgb(206, 145, 120));&quot;&gt;&lt;br&gt;&lt;/font&gt;&lt;/span&gt;&lt;/div&gt;" style="shape=partialRectangle;connectable=0;fillColor=none;top=0;left=0;bottom=0;right=0;align=left;spacingLeft=6;overflow=hidden;whiteSpace=wrap;html=1;" vertex="1" parent="L0QpSJm78Vm_rA86w4UC-30">
          <mxGeometry x="30" width="92.5" height="30" as="geometry">
            <mxRectangle width="92.5" height="30" as="alternateBounds" />
          </mxGeometry>
        </mxCell>
        <mxCell id="L0QpSJm78Vm_rA86w4UC-62" value="&lt;span style=&quot;font-weight: 400; text-wrap-mode: wrap;&quot;&gt;Order&lt;/span&gt;" style="shape=table;startSize=30;container=1;collapsible=1;childLayout=tableLayout;fixedRows=1;rowLines=0;fontStyle=1;align=center;resizeLast=1;html=1;" vertex="1" parent="1">
          <mxGeometry x="292.5" y="260" width="175" height="120" as="geometry" />
        </mxCell>
        <mxCell id="L0QpSJm78Vm_rA86w4UC-69" value="" style="shape=tableRow;horizontal=0;startSize=0;swimlaneHead=0;swimlaneBody=0;fillColor=none;collapsible=0;dropTarget=0;points=[[0,0.5],[1,0.5]];portConstraint=eastwest;top=0;left=0;right=0;bottom=1;" vertex="1" parent="L0QpSJm78Vm_rA86w4UC-62">
          <mxGeometry y="30" width="175" height="30" as="geometry" />
        </mxCell>
        <mxCell id="L0QpSJm78Vm_rA86w4UC-70" value="FK" style="shape=partialRectangle;connectable=0;fillColor=none;top=0;left=0;bottom=0;right=0;fontStyle=1;overflow=hidden;whiteSpace=wrap;html=1;" vertex="1" parent="L0QpSJm78Vm_rA86w4UC-69">
          <mxGeometry width="30" height="30" as="geometry">
            <mxRectangle width="30" height="30" as="alternateBounds" />
          </mxGeometry>
        </mxCell>
        <mxCell id="L0QpSJm78Vm_rA86w4UC-71" value="&lt;span style=&quot;font-weight: normal;&quot;&gt;&lt;span style=&quot;font-family: Consolas, &amp;quot;Courier New&amp;quot;, monospace; font-size: 14px; white-space: pre; --darkreader-inline-bgcolor: light-dark(#ffffff, #060707);&quot; data-darkreader-inline-bgcolor=&quot;&quot;&gt;&lt;font style=&quot;color: rgb(12, 67, 96); --darkreader-inline-color: light-dark(#78a5bd, #466d81);&quot; data-darkreader-inline-color=&quot;&quot;&gt;ClientID&lt;/font&gt;&lt;/span&gt;&lt;/span&gt;" style="shape=partialRectangle;connectable=0;fillColor=none;top=0;left=0;bottom=0;right=0;align=left;spacingLeft=6;fontStyle=5;overflow=hidden;whiteSpace=wrap;html=1;" vertex="1" parent="L0QpSJm78Vm_rA86w4UC-69">
          <mxGeometry x="30" width="145" height="30" as="geometry">
            <mxRectangle width="145" height="30" as="alternateBounds" />
          </mxGeometry>
        </mxCell>
        <mxCell id="L0QpSJm78Vm_rA86w4UC-75" value="" style="shape=tableRow;horizontal=0;startSize=0;swimlaneHead=0;swimlaneBody=0;fillColor=none;collapsible=0;dropTarget=0;points=[[0,0.5],[1,0.5]];portConstraint=eastwest;top=0;left=0;right=0;bottom=0;" vertex="1" parent="L0QpSJm78Vm_rA86w4UC-62">
          <mxGeometry y="60" width="175" height="30" as="geometry" />
        </mxCell>
        <mxCell id="L0QpSJm78Vm_rA86w4UC-76" value="" style="shape=partialRectangle;connectable=0;fillColor=none;top=0;left=0;bottom=0;right=0;editable=1;overflow=hidden;whiteSpace=wrap;html=1;" vertex="1" parent="L0QpSJm78Vm_rA86w4UC-75">
          <mxGeometry width="30" height="30" as="geometry">
            <mxRectangle width="30" height="30" as="alternateBounds" />
          </mxGeometry>
        </mxCell>
        <mxCell id="L0QpSJm78Vm_rA86w4UC-77" value="&lt;div style=&quot;font-family: Consolas, &amp;quot;Courier New&amp;quot;, monospace; font-size: 14px; white-space: pre; line-height: 19px; --darkreader-inline-color: light-dark(#a6a199, #67625b);&quot; data-darkreader-inline-color=&quot;&quot;&gt;&lt;font style=&quot;color: rgb(12, 67, 96);&quot;&gt;PaidAt&lt;/font&gt;&lt;/div&gt;&lt;div&gt;&lt;span style=&quot;--darkreader-inline-color: light-dark(#a27764, #9f7a6a);&quot; data-darkreader-inline-color=&quot;&quot;&gt;&lt;font style=&quot;color: light-dark(rgb(145, 93, 71), rgb(206, 145, 120));&quot;&gt;&lt;br&gt;&lt;/font&gt;&lt;/span&gt;&lt;/div&gt;" style="shape=partialRectangle;connectable=0;fillColor=none;top=0;left=0;bottom=0;right=0;align=left;spacingLeft=6;overflow=hidden;whiteSpace=wrap;html=1;" vertex="1" parent="L0QpSJm78Vm_rA86w4UC-75">
          <mxGeometry x="30" width="145" height="30" as="geometry">
            <mxRectangle width="145" height="30" as="alternateBounds" />
          </mxGeometry>
        </mxCell>
        <mxCell id="nJIS8TTzF9_8jRbYI_bg-49" value="" style="shape=tableRow;horizontal=0;startSize=0;swimlaneHead=0;swimlaneBody=0;fillColor=none;collapsible=0;dropTarget=0;points=[[0,0.5],[1,0.5]];portConstraint=eastwest;top=0;left=0;right=0;bottom=0;" vertex="1" parent="L0QpSJm78Vm_rA86w4UC-62">
          <mxGeometry y="90" width="175" height="30" as="geometry" />
        </mxCell>
        <mxCell id="nJIS8TTzF9_8jRbYI_bg-50" value="" style="shape=partialRectangle;connectable=0;fillColor=none;top=0;left=0;bottom=0;right=0;editable=1;overflow=hidden;whiteSpace=wrap;html=1;" vertex="1" parent="nJIS8TTzF9_8jRbYI_bg-49">
          <mxGeometry width="30" height="30" as="geometry">
            <mxRectangle width="30" height="30" as="alternateBounds" />
          </mxGeometry>
        </mxCell>
        <mxCell id="nJIS8TTzF9_8jRbYI_bg-51" value="&lt;div style=&quot;font-family: Consolas, &amp;quot;Courier New&amp;quot;, monospace; font-size: 14px; white-space: pre; line-height: 19px; --darkreader-inline-color: light-dark(#a6a199, #67625b);&quot; data-darkreader-inline-color=&quot;&quot;&gt;&lt;font style=&quot;color: light-dark(rgb(43, 83, 105), rgb(149, 196, 221));&quot;&gt;[]OrderProduct&lt;/font&gt;&lt;/div&gt;" style="shape=partialRectangle;connectable=0;fillColor=none;top=0;left=0;bottom=0;right=0;align=left;spacingLeft=6;overflow=hidden;whiteSpace=wrap;html=1;" vertex="1" parent="nJIS8TTzF9_8jRbYI_bg-49">
          <mxGeometry x="30" width="145" height="30" as="geometry">
            <mxRectangle width="145" height="30" as="alternateBounds" />
          </mxGeometry>
        </mxCell>
        <mxCell id="L0QpSJm78Vm_rA86w4UC-100" value="&lt;span style=&quot;font-weight: 400; text-wrap-mode: wrap;&quot;&gt;Book&lt;/span&gt;" style="shape=table;startSize=30;container=1;collapsible=1;childLayout=tableLayout;fixedRows=1;rowLines=0;fontStyle=1;align=center;resizeLast=1;html=1;" vertex="1" parent="1">
          <mxGeometry x="382.5" y="640" width="147.5" height="210" as="geometry" />
        </mxCell>
        <mxCell id="L0QpSJm78Vm_rA86w4UC-107" value="" style="shape=tableRow;horizontal=0;startSize=0;swimlaneHead=0;swimlaneBody=0;fillColor=none;collapsible=0;dropTarget=0;points=[[0,0.5],[1,0.5]];portConstraint=eastwest;top=0;left=0;right=0;bottom=0;" vertex="1" parent="L0QpSJm78Vm_rA86w4UC-100">
          <mxGeometry y="30" width="147.5" height="30" as="geometry" />
        </mxCell>
        <mxCell id="L0QpSJm78Vm_rA86w4UC-108" value="" style="shape=partialRectangle;connectable=0;fillColor=none;top=0;left=0;bottom=0;right=0;editable=1;overflow=hidden;whiteSpace=wrap;html=1;" vertex="1" parent="L0QpSJm78Vm_rA86w4UC-107">
          <mxGeometry width="30" height="30" as="geometry">
            <mxRectangle width="30" height="30" as="alternateBounds" />
          </mxGeometry>
        </mxCell>
        <mxCell id="L0QpSJm78Vm_rA86w4UC-109" value="&lt;span&gt;&lt;span style=&quot;font-family: Consolas, &amp;quot;Courier New&amp;quot;, monospace; font-size: 14px; white-space: pre; color: rgb(156, 220, 254);&quot;&gt;&lt;font style=&quot;color: rgb(12, 67, 96);&quot;&gt;Title&lt;/font&gt;&lt;/span&gt;&lt;/span&gt;" style="shape=partialRectangle;connectable=0;fillColor=none;top=0;left=0;bottom=0;right=0;align=left;spacingLeft=6;overflow=hidden;whiteSpace=wrap;html=1;" vertex="1" parent="L0QpSJm78Vm_rA86w4UC-107">
          <mxGeometry x="30" width="117.5" height="30" as="geometry">
            <mxRectangle width="117.5" height="30" as="alternateBounds" />
          </mxGeometry>
        </mxCell>
        <mxCell id="P-bTkRn5wozF6rPiBzLM-1" value="" style="shape=tableRow;horizontal=0;startSize=0;swimlaneHead=0;swimlaneBody=0;fillColor=none;collapsible=0;dropTarget=0;points=[[0,0.5],[1,0.5]];portConstraint=eastwest;top=0;left=0;right=0;bottom=0;" vertex="1" parent="L0QpSJm78Vm_rA86w4UC-100">
          <mxGeometry y="60" width="147.5" height="30" as="geometry" />
        </mxCell>
        <mxCell id="P-bTkRn5wozF6rPiBzLM-2" value="" style="shape=partialRectangle;connectable=0;fillColor=none;top=0;left=0;bottom=0;right=0;editable=1;overflow=hidden;whiteSpace=wrap;html=1;" vertex="1" parent="P-bTkRn5wozF6rPiBzLM-1">
          <mxGeometry width="30" height="30" as="geometry">
            <mxRectangle width="30" height="30" as="alternateBounds" />
          </mxGeometry>
        </mxCell>
        <mxCell id="P-bTkRn5wozF6rPiBzLM-3" value="&lt;span&gt;&lt;span style=&quot;font-family: Consolas, &amp;quot;Courier New&amp;quot;, monospace; font-size: 14px; white-space: pre; color: rgb(156, 220, 254);&quot;&gt;&lt;font style=&quot;color: rgb(12, 67, 96);&quot;&gt;Author&lt;/font&gt;&lt;/span&gt;&lt;/span&gt;" style="shape=partialRectangle;connectable=0;fillColor=none;top=0;left=0;bottom=0;right=0;align=left;spacingLeft=6;overflow=hidden;whiteSpace=wrap;html=1;" vertex="1" parent="P-bTkRn5wozF6rPiBzLM-1">
          <mxGeometry x="30" width="117.5" height="30" as="geometry">
            <mxRectangle width="117.5" height="30" as="alternateBounds" />
          </mxGeometry>
        </mxCell>
        <mxCell id="L0QpSJm78Vm_rA86w4UC-188" value="" style="shape=tableRow;horizontal=0;startSize=0;swimlaneHead=0;swimlaneBody=0;fillColor=none;collapsible=0;dropTarget=0;points=[[0,0.5],[1,0.5]];portConstraint=eastwest;top=0;left=0;right=0;bottom=0;" vertex="1" parent="L0QpSJm78Vm_rA86w4UC-100">
          <mxGeometry y="90" width="147.5" height="30" as="geometry" />
        </mxCell>
        <mxCell id="L0QpSJm78Vm_rA86w4UC-189" value="" style="shape=partialRectangle;connectable=0;fillColor=none;top=0;left=0;bottom=0;right=0;editable=1;overflow=hidden;whiteSpace=wrap;html=1;" vertex="1" parent="L0QpSJm78Vm_rA86w4UC-188">
          <mxGeometry width="30" height="30" as="geometry">
            <mxRectangle width="30" height="30" as="alternateBounds" />
          </mxGeometry>
        </mxCell>
        <mxCell id="L0QpSJm78Vm_rA86w4UC-190" value="&lt;span&gt;&lt;span style=&quot;font-family: Consolas, &amp;quot;Courier New&amp;quot;, monospace; font-size: 14px; white-space: pre; color: rgb(156, 220, 254);&quot;&gt;&lt;font style=&quot;color: rgb(12, 67, 96);&quot;&gt;Publisher&lt;/font&gt;&lt;/span&gt;&lt;/span&gt;" style="shape=partialRectangle;connectable=0;fillColor=none;top=0;left=0;bottom=0;right=0;align=left;spacingLeft=6;overflow=hidden;whiteSpace=wrap;html=1;" vertex="1" parent="L0QpSJm78Vm_rA86w4UC-188">
          <mxGeometry x="30" width="117.5" height="30" as="geometry">
            <mxRectangle width="117.5" height="30" as="alternateBounds" />
          </mxGeometry>
        </mxCell>
        <mxCell id="nJIS8TTzF9_8jRbYI_bg-6" value="" style="shape=tableRow;horizontal=0;startSize=0;swimlaneHead=0;swimlaneBody=0;fillColor=none;collapsible=0;dropTarget=0;points=[[0,0.5],[1,0.5]];portConstraint=eastwest;top=0;left=0;right=0;bottom=0;" vertex="1" parent="L0QpSJm78Vm_rA86w4UC-100">
          <mxGeometry y="120" width="147.5" height="30" as="geometry" />
        </mxCell>
        <mxCell id="nJIS8TTzF9_8jRbYI_bg-7" value="" style="shape=partialRectangle;connectable=0;fillColor=none;top=0;left=0;bottom=0;right=0;editable=1;overflow=hidden;whiteSpace=wrap;html=1;" vertex="1" parent="nJIS8TTzF9_8jRbYI_bg-6">
          <mxGeometry width="30" height="30" as="geometry">
            <mxRectangle width="30" height="30" as="alternateBounds" />
          </mxGeometry>
        </mxCell>
        <mxCell id="nJIS8TTzF9_8jRbYI_bg-8" value="&lt;span&gt;&lt;span style=&quot;font-family: Consolas, &amp;quot;Courier New&amp;quot;, monospace; font-size: 14px; white-space: pre; color: rgb(156, 220, 254);&quot;&gt;&lt;font style=&quot;color: rgb(12, 67, 96);&quot;&gt;Edition&lt;/font&gt;&lt;/span&gt;&lt;/span&gt;" style="shape=partialRectangle;connectable=0;fillColor=none;top=0;left=0;bottom=0;right=0;align=left;spacingLeft=6;overflow=hidden;whiteSpace=wrap;html=1;" vertex="1" parent="nJIS8TTzF9_8jRbYI_bg-6">
          <mxGeometry x="30" width="117.5" height="30" as="geometry">
            <mxRectangle width="117.5" height="30" as="alternateBounds" />
          </mxGeometry>
        </mxCell>
        <mxCell id="L0QpSJm78Vm_rA86w4UC-194" value="" style="shape=tableRow;horizontal=0;startSize=0;swimlaneHead=0;swimlaneBody=0;fillColor=none;collapsible=0;dropTarget=0;points=[[0,0.5],[1,0.5]];portConstraint=eastwest;top=0;left=0;right=0;bottom=0;" vertex="1" parent="L0QpSJm78Vm_rA86w4UC-100">
          <mxGeometry y="150" width="147.5" height="30" as="geometry" />
        </mxCell>
        <mxCell id="L0QpSJm78Vm_rA86w4UC-195" value="" style="shape=partialRectangle;connectable=0;fillColor=none;top=0;left=0;bottom=0;right=0;editable=1;overflow=hidden;whiteSpace=wrap;html=1;" vertex="1" parent="L0QpSJm78Vm_rA86w4UC-194">
          <mxGeometry width="30" height="30" as="geometry">
            <mxRectangle width="30" height="30" as="alternateBounds" />
          </mxGeometry>
        </mxCell>
        <mxCell id="L0QpSJm78Vm_rA86w4UC-196" value="&lt;span&gt;&lt;span style=&quot;font-family: Consolas, &amp;quot;Courier New&amp;quot;, monospace; font-size: 14px; white-space: pre; color: rgb(156, 220, 254);&quot;&gt;&lt;font style=&quot;color: rgb(12, 67, 96);&quot;&gt;Genre&lt;/font&gt;&lt;/span&gt;&lt;/span&gt;" style="shape=partialRectangle;connectable=0;fillColor=none;top=0;left=0;bottom=0;right=0;align=left;spacingLeft=6;overflow=hidden;whiteSpace=wrap;html=1;" vertex="1" parent="L0QpSJm78Vm_rA86w4UC-194">
          <mxGeometry x="30" width="117.5" height="30" as="geometry">
            <mxRectangle width="117.5" height="30" as="alternateBounds" />
          </mxGeometry>
        </mxCell>
        <mxCell id="nJIS8TTzF9_8jRbYI_bg-16" value="" style="shape=tableRow;horizontal=0;startSize=0;swimlaneHead=0;swimlaneBody=0;fillColor=none;collapsible=0;dropTarget=0;points=[[0,0.5],[1,0.5]];portConstraint=eastwest;top=0;left=0;right=0;bottom=0;" vertex="1" parent="L0QpSJm78Vm_rA86w4UC-100">
          <mxGeometry y="180" width="147.5" height="30" as="geometry" />
        </mxCell>
        <mxCell id="nJIS8TTzF9_8jRbYI_bg-17" value="" style="shape=partialRectangle;connectable=0;fillColor=none;top=0;left=0;bottom=0;right=0;editable=1;overflow=hidden;whiteSpace=wrap;html=1;" vertex="1" parent="nJIS8TTzF9_8jRbYI_bg-16">
          <mxGeometry width="30" height="30" as="geometry">
            <mxRectangle width="30" height="30" as="alternateBounds" />
          </mxGeometry>
        </mxCell>
        <mxCell id="nJIS8TTzF9_8jRbYI_bg-18" value="&lt;span&gt;&lt;span style=&quot;font-family: Consolas, &amp;quot;Courier New&amp;quot;, monospace; font-size: 14px; white-space: pre; color: rgb(156, 220, 254);&quot;&gt;&lt;font style=&quot;color: rgb(12, 67, 96);&quot;&gt;[]Product&lt;/font&gt;&lt;/span&gt;&lt;/span&gt;" style="shape=partialRectangle;connectable=0;fillColor=none;top=0;left=0;bottom=0;right=0;align=left;spacingLeft=6;overflow=hidden;whiteSpace=wrap;html=1;" vertex="1" parent="nJIS8TTzF9_8jRbYI_bg-16">
          <mxGeometry x="30" width="117.5" height="30" as="geometry">
            <mxRectangle width="117.5" height="30" as="alternateBounds" />
          </mxGeometry>
        </mxCell>
        <mxCell id="L0QpSJm78Vm_rA86w4UC-178" value="&lt;span style=&quot;font-weight: 400; text-wrap-mode: wrap;&quot;&gt;Magazine&lt;/span&gt;" style="shape=table;startSize=30;container=1;collapsible=1;childLayout=tableLayout;fixedRows=1;rowLines=0;fontStyle=1;align=center;resizeLast=1;html=1;" vertex="1" parent="1">
          <mxGeometry x="543.75" y="640" width="147.5" height="150" as="geometry" />
        </mxCell>
        <mxCell id="L0QpSJm78Vm_rA86w4UC-185" value="" style="shape=tableRow;horizontal=0;startSize=0;swimlaneHead=0;swimlaneBody=0;fillColor=none;collapsible=0;dropTarget=0;points=[[0,0.5],[1,0.5]];portConstraint=eastwest;top=0;left=0;right=0;bottom=0;" vertex="1" parent="L0QpSJm78Vm_rA86w4UC-178">
          <mxGeometry y="30" width="147.5" height="30" as="geometry" />
        </mxCell>
        <mxCell id="L0QpSJm78Vm_rA86w4UC-186" value="" style="shape=partialRectangle;connectable=0;fillColor=none;top=0;left=0;bottom=0;right=0;editable=1;overflow=hidden;whiteSpace=wrap;html=1;" vertex="1" parent="L0QpSJm78Vm_rA86w4UC-185">
          <mxGeometry width="30" height="30" as="geometry">
            <mxRectangle width="30" height="30" as="alternateBounds" />
          </mxGeometry>
        </mxCell>
        <mxCell id="L0QpSJm78Vm_rA86w4UC-187" value="&lt;span&gt;&lt;span style=&quot;font-family: Consolas, &amp;quot;Courier New&amp;quot;, monospace; font-size: 14px; white-space: pre; color: rgb(156, 220, 254);&quot;&gt;&lt;font style=&quot;color: rgb(12, 67, 96);&quot;&gt;Title&lt;/font&gt;&lt;/span&gt;&lt;/span&gt;" style="shape=partialRectangle;connectable=0;fillColor=none;top=0;left=0;bottom=0;right=0;align=left;spacingLeft=6;overflow=hidden;whiteSpace=wrap;html=1;" vertex="1" parent="L0QpSJm78Vm_rA86w4UC-185">
          <mxGeometry x="30" width="117.5" height="30" as="geometry">
            <mxRectangle width="117.5" height="30" as="alternateBounds" />
          </mxGeometry>
        </mxCell>
        <mxCell id="P-bTkRn5wozF6rPiBzLM-4" value="" style="shape=tableRow;horizontal=0;startSize=0;swimlaneHead=0;swimlaneBody=0;fillColor=none;collapsible=0;dropTarget=0;points=[[0,0.5],[1,0.5]];portConstraint=eastwest;top=0;left=0;right=0;bottom=0;" vertex="1" parent="L0QpSJm78Vm_rA86w4UC-178">
          <mxGeometry y="60" width="147.5" height="30" as="geometry" />
        </mxCell>
        <mxCell id="P-bTkRn5wozF6rPiBzLM-5" value="" style="shape=partialRectangle;connectable=0;fillColor=none;top=0;left=0;bottom=0;right=0;editable=1;overflow=hidden;whiteSpace=wrap;html=1;" vertex="1" parent="P-bTkRn5wozF6rPiBzLM-4">
          <mxGeometry width="30" height="30" as="geometry">
            <mxRectangle width="30" height="30" as="alternateBounds" />
          </mxGeometry>
        </mxCell>
        <mxCell id="P-bTkRn5wozF6rPiBzLM-6" value="&lt;span&gt;&lt;span style=&quot;font-family: Consolas, &amp;quot;Courier New&amp;quot;, monospace; font-size: 14px; white-space: pre; color: rgb(156, 220, 254);&quot;&gt;&lt;font style=&quot;color: rgb(12, 67, 96);&quot;&gt;Edition&lt;/font&gt;&lt;/span&gt;&lt;/span&gt;" style="shape=partialRectangle;connectable=0;fillColor=none;top=0;left=0;bottom=0;right=0;align=left;spacingLeft=6;overflow=hidden;whiteSpace=wrap;html=1;" vertex="1" parent="P-bTkRn5wozF6rPiBzLM-4">
          <mxGeometry x="30" width="117.5" height="30" as="geometry">
            <mxRectangle width="117.5" height="30" as="alternateBounds" />
          </mxGeometry>
        </mxCell>
        <mxCell id="P-bTkRn5wozF6rPiBzLM-7" value="" style="shape=tableRow;horizontal=0;startSize=0;swimlaneHead=0;swimlaneBody=0;fillColor=none;collapsible=0;dropTarget=0;points=[[0,0.5],[1,0.5]];portConstraint=eastwest;top=0;left=0;right=0;bottom=0;" vertex="1" parent="L0QpSJm78Vm_rA86w4UC-178">
          <mxGeometry y="90" width="147.5" height="30" as="geometry" />
        </mxCell>
        <mxCell id="P-bTkRn5wozF6rPiBzLM-8" value="" style="shape=partialRectangle;connectable=0;fillColor=none;top=0;left=0;bottom=0;right=0;editable=1;overflow=hidden;whiteSpace=wrap;html=1;" vertex="1" parent="P-bTkRn5wozF6rPiBzLM-7">
          <mxGeometry width="30" height="30" as="geometry">
            <mxRectangle width="30" height="30" as="alternateBounds" />
          </mxGeometry>
        </mxCell>
        <mxCell id="P-bTkRn5wozF6rPiBzLM-9" value="&lt;span&gt;&lt;span style=&quot;font-family: Consolas, &amp;quot;Courier New&amp;quot;, monospace; font-size: 14px; white-space: pre; color: rgb(156, 220, 254);&quot;&gt;&lt;font style=&quot;color: rgb(12, 67, 96);&quot;&gt;Company&lt;/font&gt;&lt;/span&gt;&lt;/span&gt;" style="shape=partialRectangle;connectable=0;fillColor=none;top=0;left=0;bottom=0;right=0;align=left;spacingLeft=6;overflow=hidden;whiteSpace=wrap;html=1;" vertex="1" parent="P-bTkRn5wozF6rPiBzLM-7">
          <mxGeometry x="30" width="117.5" height="30" as="geometry">
            <mxRectangle width="117.5" height="30" as="alternateBounds" />
          </mxGeometry>
        </mxCell>
        <mxCell id="nJIS8TTzF9_8jRbYI_bg-19" value="" style="shape=tableRow;horizontal=0;startSize=0;swimlaneHead=0;swimlaneBody=0;fillColor=none;collapsible=0;dropTarget=0;points=[[0,0.5],[1,0.5]];portConstraint=eastwest;top=0;left=0;right=0;bottom=0;" vertex="1" parent="L0QpSJm78Vm_rA86w4UC-178">
          <mxGeometry y="120" width="147.5" height="30" as="geometry" />
        </mxCell>
        <mxCell id="nJIS8TTzF9_8jRbYI_bg-20" value="" style="shape=partialRectangle;connectable=0;fillColor=none;top=0;left=0;bottom=0;right=0;editable=1;overflow=hidden;whiteSpace=wrap;html=1;" vertex="1" parent="nJIS8TTzF9_8jRbYI_bg-19">
          <mxGeometry width="30" height="30" as="geometry">
            <mxRectangle width="30" height="30" as="alternateBounds" />
          </mxGeometry>
        </mxCell>
        <mxCell id="nJIS8TTzF9_8jRbYI_bg-21" value="&lt;span style=&quot;font-family: Consolas, &amp;quot;Courier New&amp;quot;, monospace; font-size: 14px; white-space: pre;&quot;&gt;&lt;font style=&quot;color: light-dark(rgb(43, 83, 105), rgb(149, 196, 221));&quot;&gt;[]Product&lt;/font&gt;&lt;/span&gt;" style="shape=partialRectangle;connectable=0;fillColor=none;top=0;left=0;bottom=0;right=0;align=left;spacingLeft=6;overflow=hidden;whiteSpace=wrap;html=1;" vertex="1" parent="nJIS8TTzF9_8jRbYI_bg-19">
          <mxGeometry x="30" width="117.5" height="30" as="geometry">
            <mxRectangle width="117.5" height="30" as="alternateBounds" />
          </mxGeometry>
        </mxCell>
        <mxCell id="nJIS8TTzF9_8jRbYI_bg-2" style="edgeStyle=orthogonalEdgeStyle;rounded=0;orthogonalLoop=1;jettySize=auto;html=1;entryX=0.529;entryY=0;entryDx=0;entryDy=0;entryPerimeter=0;" edge="1" parent="1" source="L0QpSJm78Vm_rA86w4UC-16" target="L0QpSJm78Vm_rA86w4UC-178">
          <mxGeometry relative="1" as="geometry" />
        </mxCell>
        <mxCell id="nJIS8TTzF9_8jRbYI_bg-3" value="Doing this via gorm polymorphism" style="text;html=1;align=center;verticalAlign=middle;whiteSpace=wrap;rounded=0;" vertex="1" parent="1">
          <mxGeometry x="475.37" y="598" width="112.38" height="31" as="geometry" />
        </mxCell>
        <mxCell id="FSTvZLZT1JtWRTk_z4Pj-21" style="edgeStyle=orthogonalEdgeStyle;rounded=0;orthogonalLoop=1;jettySize=auto;html=1;" edge="1" parent="1" source="FSTvZLZT1JtWRTk_z4Pj-1" target="FSTvZLZT1JtWRTk_z4Pj-20">
          <mxGeometry relative="1" as="geometry" />
        </mxCell>
        <mxCell id="FSTvZLZT1JtWRTk_z4Pj-1" value="&lt;span style=&quot;font-weight: 400; text-wrap-mode: wrap;&quot;&gt;Model&lt;/span&gt;" style="shape=table;startSize=30;container=1;collapsible=1;childLayout=tableLayout;fixedRows=1;rowLines=0;fontStyle=1;align=center;resizeLast=1;html=1;" vertex="1" parent="1">
          <mxGeometry x="338" y="40" width="175" height="150" as="geometry" />
        </mxCell>
        <mxCell id="FSTvZLZT1JtWRTk_z4Pj-2" value="" style="shape=tableRow;horizontal=0;startSize=0;swimlaneHead=0;swimlaneBody=0;fillColor=none;collapsible=0;dropTarget=0;points=[[0,0.5],[1,0.5]];portConstraint=eastwest;top=0;left=0;right=0;bottom=1;" vertex="1" parent="FSTvZLZT1JtWRTk_z4Pj-1">
          <mxGeometry y="30" width="175" height="30" as="geometry" />
        </mxCell>
        <mxCell id="FSTvZLZT1JtWRTk_z4Pj-3" value="PK" style="shape=partialRectangle;connectable=0;fillColor=none;top=0;left=0;bottom=0;right=0;fontStyle=1;overflow=hidden;whiteSpace=wrap;html=1;" vertex="1" parent="FSTvZLZT1JtWRTk_z4Pj-2">
          <mxGeometry width="30" height="30" as="geometry">
            <mxRectangle width="30" height="30" as="alternateBounds" />
          </mxGeometry>
        </mxCell>
        <mxCell id="FSTvZLZT1JtWRTk_z4Pj-4" value="&lt;span style=&quot;font-weight: normal;&quot;&gt;&lt;span style=&quot;font-family: Consolas, &amp;quot;Courier New&amp;quot;, monospace; font-size: 14px; white-space: pre; --darkreader-inline-bgcolor: light-dark(#ffffff, #060707);&quot; data-darkreader-inline-bgcolor=&quot;&quot;&gt;&lt;font style=&quot;color: rgb(12, 67, 96); --darkreader-inline-color: light-dark(#78a5bd, #466d81);&quot; data-darkreader-inline-color=&quot;&quot;&gt;ID&lt;/font&gt;&lt;/span&gt;&lt;/span&gt;" style="shape=partialRectangle;connectable=0;fillColor=none;top=0;left=0;bottom=0;right=0;align=left;spacingLeft=6;fontStyle=5;overflow=hidden;whiteSpace=wrap;html=1;" vertex="1" parent="FSTvZLZT1JtWRTk_z4Pj-2">
          <mxGeometry x="30" width="145" height="30" as="geometry">
            <mxRectangle width="145" height="30" as="alternateBounds" />
          </mxGeometry>
        </mxCell>
        <mxCell id="FSTvZLZT1JtWRTk_z4Pj-8" value="" style="shape=tableRow;horizontal=0;startSize=0;swimlaneHead=0;swimlaneBody=0;fillColor=none;collapsible=0;dropTarget=0;points=[[0,0.5],[1,0.5]];portConstraint=eastwest;top=0;left=0;right=0;bottom=0;" vertex="1" parent="FSTvZLZT1JtWRTk_z4Pj-1">
          <mxGeometry y="60" width="175" height="30" as="geometry" />
        </mxCell>
        <mxCell id="FSTvZLZT1JtWRTk_z4Pj-9" value="" style="shape=partialRectangle;connectable=0;fillColor=none;top=0;left=0;bottom=0;right=0;editable=1;overflow=hidden;whiteSpace=wrap;html=1;" vertex="1" parent="FSTvZLZT1JtWRTk_z4Pj-8">
          <mxGeometry width="30" height="30" as="geometry">
            <mxRectangle width="30" height="30" as="alternateBounds" />
          </mxGeometry>
        </mxCell>
        <mxCell id="FSTvZLZT1JtWRTk_z4Pj-10" value="&lt;div style=&quot;font-family: Consolas, &amp;quot;Courier New&amp;quot;, monospace; font-size: 14px; white-space: pre; line-height: 19px; --darkreader-inline-color: light-dark(#a6a199, #67625b);&quot; data-darkreader-inline-color=&quot;&quot;&gt;&lt;font style=&quot;color: light-dark(rgb(43, 83, 105), rgb(149, 196, 221));&quot;&gt;CreatedAt&lt;/font&gt;&lt;/div&gt;" style="shape=partialRectangle;connectable=0;fillColor=none;top=0;left=0;bottom=0;right=0;align=left;spacingLeft=6;overflow=hidden;whiteSpace=wrap;html=1;" vertex="1" parent="FSTvZLZT1JtWRTk_z4Pj-8">
          <mxGeometry x="30" width="145" height="30" as="geometry">
            <mxRectangle width="145" height="30" as="alternateBounds" />
          </mxGeometry>
        </mxCell>
        <mxCell id="FSTvZLZT1JtWRTk_z4Pj-11" value="" style="shape=tableRow;horizontal=0;startSize=0;swimlaneHead=0;swimlaneBody=0;fillColor=none;collapsible=0;dropTarget=0;points=[[0,0.5],[1,0.5]];portConstraint=eastwest;top=0;left=0;right=0;bottom=0;" vertex="1" parent="FSTvZLZT1JtWRTk_z4Pj-1">
          <mxGeometry y="90" width="175" height="30" as="geometry" />
        </mxCell>
        <mxCell id="FSTvZLZT1JtWRTk_z4Pj-12" value="" style="shape=partialRectangle;connectable=0;fillColor=none;top=0;left=0;bottom=0;right=0;editable=1;overflow=hidden;whiteSpace=wrap;html=1;" vertex="1" parent="FSTvZLZT1JtWRTk_z4Pj-11">
          <mxGeometry width="30" height="30" as="geometry">
            <mxRectangle width="30" height="30" as="alternateBounds" />
          </mxGeometry>
        </mxCell>
        <mxCell id="FSTvZLZT1JtWRTk_z4Pj-13" value="&lt;div style=&quot;font-family: Consolas, &amp;quot;Courier New&amp;quot;, monospace; font-size: 14px; white-space: pre; line-height: 19px; --darkreader-inline-color: light-dark(#a6a199, #67625b);&quot; data-darkreader-inline-color=&quot;&quot;&gt;&lt;font style=&quot;color: light-dark(rgb(43, 83, 105), rgb(149, 196, 221));&quot;&gt;UpdatedAt&lt;/font&gt;&lt;/div&gt;" style="shape=partialRectangle;connectable=0;fillColor=none;top=0;left=0;bottom=0;right=0;align=left;spacingLeft=6;overflow=hidden;whiteSpace=wrap;html=1;" vertex="1" parent="FSTvZLZT1JtWRTk_z4Pj-11">
          <mxGeometry x="30" width="145" height="30" as="geometry">
            <mxRectangle width="145" height="30" as="alternateBounds" />
          </mxGeometry>
        </mxCell>
        <mxCell id="FSTvZLZT1JtWRTk_z4Pj-14" value="" style="shape=tableRow;horizontal=0;startSize=0;swimlaneHead=0;swimlaneBody=0;fillColor=none;collapsible=0;dropTarget=0;points=[[0,0.5],[1,0.5]];portConstraint=eastwest;top=0;left=0;right=0;bottom=0;" vertex="1" parent="FSTvZLZT1JtWRTk_z4Pj-1">
          <mxGeometry y="120" width="175" height="30" as="geometry" />
        </mxCell>
        <mxCell id="FSTvZLZT1JtWRTk_z4Pj-15" value="" style="shape=partialRectangle;connectable=0;fillColor=none;top=0;left=0;bottom=0;right=0;editable=1;overflow=hidden;whiteSpace=wrap;html=1;" vertex="1" parent="FSTvZLZT1JtWRTk_z4Pj-14">
          <mxGeometry width="30" height="30" as="geometry">
            <mxRectangle width="30" height="30" as="alternateBounds" />
          </mxGeometry>
        </mxCell>
        <mxCell id="FSTvZLZT1JtWRTk_z4Pj-16" value="&lt;div style=&quot;font-family: Consolas, &amp;quot;Courier New&amp;quot;, monospace; font-size: 14px; white-space: pre; line-height: 19px; --darkreader-inline-color: light-dark(#a6a199, #67625b);&quot; data-darkreader-inline-color=&quot;&quot;&gt;&lt;font style=&quot;color: light-dark(rgb(43, 83, 105), rgb(149, 196, 221));&quot;&gt;DeletedAt&lt;/font&gt;&lt;/div&gt;" style="shape=partialRectangle;connectable=0;fillColor=none;top=0;left=0;bottom=0;right=0;align=left;spacingLeft=6;overflow=hidden;whiteSpace=wrap;html=1;" vertex="1" parent="FSTvZLZT1JtWRTk_z4Pj-14">
          <mxGeometry x="30" width="145" height="30" as="geometry">
            <mxRectangle width="145" height="30" as="alternateBounds" />
          </mxGeometry>
        </mxCell>
      </root>
    </mxGraphModel>
  </diagram>
</mxfile>
